<svg xmlns="http://www.w3.org/2000/svg" xmlns:xlink="http://www.w3.org/1999/xlink" width="306.994" height="306.973" viewBox="0 0 306.994 306.973"><defs><clipPath id="clip-path"><rect id="Rectangle_2" data-name="Rectangle 2" width="117.575" height="82.201" fill="none"></rect></clipPath></defs><g id="Group_11" data-name="Group 11" transform="translate(-69.385 -187.305)"><circle id="Ellipse_1" data-name="Ellipse 1" cx="108.756" cy="108.756" r="108.756" transform="translate(114.05 232.121)" fill="#c93d00"></circle><g id="Group_6" data-name="Group 6" transform="translate(159.29 308.367)"><g id="Group_5" data-name="Group 5" clip-path="url(#clip-path)"><path id="Path_11" data-name="Path 11" d="M.02,41.134c0-9.586.011-19.173-.02-28.759,0-.793.218-1.079.994-1.246Q22.409,6.518,43.812,1.852c2.8-.608,5.6-1.216,8.41-1.8a2.492,2.492,0,0,1,1,.007Q77.165,5.171,101.1,10.307c5.2,1.114,10.4,2.237,15.605,3.314.7.146.871.423.87,1.11q-.03,26.258-.018,52.517c0,1.325.19,1.084-1.074,1.356q-16.494,3.551-32.994,7.07Q68.394,78.909,53.3,82.14a3.007,3.007,0,0,1-1.227-.007Q27.212,76.751,2.358,71.343c-.527-.114-1.048-.271-1.581-.332C.154,70.94,0,70.643.006,70.04.028,63.249.02,56.457.02,49.666q0-4.266,0-8.532M47.954,75.472V6.735c-.327.058-.587.1-.843.151q-20.688,4.491-41.38,8.967c-.779.168-1,.457-1,1.25q.038,24.013.019,48.027a1.814,1.814,0,0,0,.019.584c.064.178.208.423.36.459,1.449.342,2.907.645,4.49.988V45.271c.425,0,.737-.008,1.049,0q4.3.13,8.6.266c1.036.033,1.036.035,1.036,1.111,0,7.281.011,14.563-.017,21.844,0,.74.172,1.048.94,1.212,7.836,1.67,15.663,3.385,23.493,5.086,1.048.228,2.1.443,3.235.682m10.407-4.986c.414-.046.683-.064.947-.107,5.27-.862,10.539-1.74,15.813-2.577.627-.1.861-.279.859-.951q-.032-15.441,0-30.882c0-.717-.238-.9-.914-.935-5.235-.3-10.468-.629-15.7-.95-1-.061-1-.061-1,.955q0,17.242,0,34.485v.962m24.045-3.768c.257-.022.4-.025.546-.048,4.038-.658,8.072-1.335,12.114-1.961.678-.105.872-.352.87-1.028q-.033-13.271,0-26.541c0-.71-.226-.9-.906-.939-3.914-.207-7.826-.458-11.739-.7-.922-.056-.925-.063-.925.87q0,14.741,0,29.482c0,.264.022.527.037.862m18.762-2.966a1.489,1.489,0,0,0,.338.035c3.313-.537,6.627-1.069,9.933-1.645.183-.032.43-.438.431-.67.022-7.868.016-15.736.025-23.6,0-.481-.124-.69-.654-.719-3.034-.167-6.066-.372-9.1-.56-.31-.019-.622,0-.974,0Z" transform="translate(0 0)" fill="#fff"></path><path id="Path_11_-_Outline" data-name="Path 11 - Outline" d="M53.287,84.009a4.241,4.241,0,0,1-.9-.095c-14.813-3.207-29.872-6.479-44.434-9.643l-5.28-1.147c-.171-.037-.341-.078-.511-.12a8.067,8.067,0,0,0-.948-.192,1.974,1.974,0,0,1-1.861-2.2c.017-5.341.016-10.772.014-16.025q0-2.173,0-4.345V41.714q0-2.957,0-5.914c0-7.487,0-15.228-.021-22.841a2.22,2.22,0,0,1,1.965-2.452C12.63,8.07,24.13,5.573,35.252,3.157L44.131,1.23l.073-.016C46.937.621,49.763.007,52.549-.577a3.738,3.738,0,0,1,1.513.008C66.128,2.01,78.394,4.639,90.256,7.181L104.349,10.2c4.319.927,8.786,1.885,13.183,2.794a2.106,2.106,0,0,1,1.851,2.316c-.015,12.763-.016,25.74-.016,38.29q0,7.113,0,14.226c0,.166,0,.306.006.424a2,2,0,0,1-.334,1.411,1.943,1.943,0,0,1-1.312.642c-.113.021-.247.047-.4.081-7.368,1.586-14.862,3.19-22.108,4.74l-10.887,2.33L75.41,79.368c-6.973,1.5-14.182,3.043-21.276,4.555A4.072,4.072,0,0,1,53.287,84.009ZM1.816,70.414c.324.054.631.128.929.2.151.037.3.073.453.106l5.28,1.147C23.041,75.032,38.1,78.3,52.911,81.511a1.814,1.814,0,0,0,.71.006c7.092-1.512,14.3-3.058,21.273-4.554l8.916-1.912L94.7,72.721c7.246-1.55,14.739-3.153,22.105-4.739l.1-.022q0-.064,0-.133,0-7.113,0-14.226c0-12.527,0-25.479.016-38.22-4.371-.9-8.8-1.855-13.091-2.775L89.741,9.585C77.879,7.043,65.613,4.414,53.548,1.836a1.291,1.291,0,0,0-.495-.006c-2.778.582-5.6,1.195-8.329,1.787l-.073.016L35.774,5.56C24.651,7.976,13.149,10.474,1.832,12.91l-.023.005q0,.017,0,.035c.025,7.617.023,15.361.021,22.85q0,2.957,0,5.914v8.532q0,2.172,0,4.345C1.831,59.776,1.832,65.136,1.816,70.414Zm47.947,7.152-1.482-.312-1.055-.221c-.755-.157-1.467-.306-2.188-.463l-5.8-1.262c-5.795-1.261-11.787-2.566-17.685-3.822a2.183,2.183,0,0,1-1.913-2.419c.022-5.692.02-11.48.018-17.078q0-2.324,0-4.648-4.112-.13-8.224-.254V69.263L9.94,68.941l-1.063-.229c-1.192-.256-2.319-.5-3.449-.764a1.875,1.875,0,0,1-1.235-1.241,2.145,2.145,0,0,1-.1-.9c0-.033,0-.065,0-.1V57.353c0-13,0-26.447-.02-39.669a2.226,2.226,0,0,1,1.97-2.454c10.954-2.358,22.087-4.776,32.853-7.115L47.43,6.264c.2-.043.388-.075.59-.109l.3-.051,1.445-.257ZM22.1,69.088c5.892,1.256,11.875,2.558,17.662,3.817l5.8,1.262c.576.125,1.149.246,1.745.37V8.808l-7.877,1.711c-10.768,2.339-21.9,4.758-32.858,7.116l-.029.006q0,.019,0,.04c.021,13.225.02,26.67.02,39.673v8.333c.788.18,1.584.353,2.41.53v-21.6H10.2c.271,0,.5,0,.7,0,.132,0,.257,0,.383.005q4.3.13,8.6.266a2.242,2.242,0,0,1,1.768.556,2.379,2.379,0,0,1,.459,1.784q0,2.38,0,4.76c0,5.6,0,11.391-.018,17.088C22.1,69.081,22.1,69.085,22.1,69.088Zm35.616,3.35V70.1q0-17.242,0-34.485a2.987,2.987,0,0,1,.177-1.307,1.574,1.574,0,0,1,1.573-.9c.166,0,.348.011.558.024l3.817.236c3.894.241,7.92.49,11.879.714a1.964,1.964,0,0,1,2.074,2.165c-.022,10.038-.022,20.426,0,30.877a2,2,0,0,1-1.9,2.168c-3.848.611-7.758,1.254-11.54,1.875l-4.267.7c-.21.034-.409.054-.638.077-.11.011-.232.023-.371.038Zm2.459-36.53q0,16.878,0,33.757l3.784-.621c3.727-.613,7.579-1.246,11.376-1.849-.021-10.276-.021-20.491,0-30.369-3.886-.22-7.83-.465-11.646-.7ZM81.815,68.631l-.057-1.279c0-.107-.01-.206-.015-.3-.012-.209-.022-.407-.022-.617q0-14.741,0-29.482a2.808,2.808,0,0,1,.17-1.234,1.533,1.533,0,0,1,1.53-.885c.152,0,.318.01.51.022h.018L86.339,35c3.061.189,6.226.384,9.337.549a1.961,1.961,0,0,1,2.07,2.17c-.023,8.578-.023,17.506,0,26.535A2.039,2.039,0,0,1,95.835,66.5c-2.94.456-5.927.946-8.816,1.421l-3.288.539c-.148.024-.28.033-.421.043l-.219.016Zm2.363-31.3q0,14.282,0,28.564l2.441-.4c2.839-.466,5.772-.948,8.667-1.4-.022-8.879-.022-17.66,0-26.106-3.039-.162-6.118-.353-9.1-.537ZM102.037,65.6a2.05,2.05,0,0,1-.358-.036c-.021,0-.043-.008-.069-.011l-1.091-.124V35.937h1.229c.224,0,.431-.007.632-.007.158,0,.291,0,.418.012q1.467.091,2.935.185c2.018.129,4.1.261,6.155.374a1.775,1.775,0,0,1,1.816,1.948q0,4.165-.006,8.33c0,5.007,0,10.183-.019,15.276a1.991,1.991,0,0,1-1.45,1.877c-2.969.517-5.99,1.006-8.911,1.479l-1.036.168A1.54,1.54,0,0,1,102.037,65.6Zm.94-27.183v24.56c2.706-.438,5.5-.89,8.244-1.364.013-4.949.016-9.971.018-14.834q0-3.925.005-7.85c-1.9-.107-3.811-.229-5.668-.347Z" transform="translate(-0.579 -0.579)" fill="#c93d00"></path><path id="Path_12" data-name="Path 12" d="M75.388,114.519c-1.137-.239-2.187-.454-3.235-.682-7.83-1.7-15.656-3.416-23.493-5.086-.768-.164-.943-.472-.94-1.212.029-7.281.017-14.562.017-21.844,0-1.076,0-1.078-1.036-1.111q-4.3-.136-8.6-.266c-.312-.009-.624,0-1.049,0v21.889c-1.583-.342-3.041-.646-4.49-.988-.152-.036-.3-.281-.36-.459a1.814,1.814,0,0,1-.019-.584q0-24.013-.019-48.027c0-.793.22-1.082,1-1.25q20.7-4.455,41.379-8.967c.256-.056.516-.093.843-.151Z" transform="translate(-27.434 -39.047)" fill="#fff"></path><path id="Path_13" data-name="Path 13" d="M396.683,267.946v-.962q0-17.242,0-34.485c0-1.016,0-1.017,1-.955,5.234.321,10.467.654,15.7.95.676.038.916.219.914.935q-.034,15.441,0,30.882c0,.672-.233.852-.86.951-5.274.837-10.543,1.714-15.813,2.577-.264.043-.532.061-.947.107m9.951-28.627c0,1.682.007,3.2,0,4.714,0,.392.181.5.539.509.857.01,1.714.075,2.57.061a2.278,2.278,0,0,0,2.176-2.188c.148-1.406-.559-2.756-1.674-2.91-1.152-.159-2.33-.129-3.607-.187m-2.437-.086h-2.669c-.171,0-.343-.01-.513,0a2.393,2.393,0,0,0-2.11,2.566,2.361,2.361,0,0,0,1.978,2.593c.925.075,1.857.087,2.785.07.179,0,.5-.265.506-.414.038-1.536.023-3.073.023-4.819" transform="translate(-338.321 -197.46)" fill="#fff"></path><path id="Path_14" data-name="Path 14" d="M559.9,272.418c-.015-.335-.036-.6-.037-.862q0-14.741,0-29.482c0-.932,0-.926.924-.87,3.913.239,7.825.49,11.739.7.68.036.908.229.906.939q-.036,13.27,0,26.541c0,.676-.192.922-.87,1.028-4.042.627-8.077,1.3-12.114,1.961-.143.023-.289.026-.546.048m7.708-21.894.071.007c0,.49.022.981-.006,1.469s.112.727.651.7c.61-.027,1.223.029,1.835.027a1.765,1.765,0,0,0,1.745-1.208,2.139,2.139,0,0,0-2.1-3.05c-.654.057-1.568-.219-1.9.117-.371.37-.214,1.269-.286,1.937m-1.958-.012h0a14.414,14.414,0,0,0-.021-1.611.685.685,0,0,0-.448-.473,18.182,18.182,0,0,0-1.9-.083,1.909,1.909,0,0,0-2,2.048,1.94,1.94,0,0,0,1.85,2.2c.586.027,1.176-.008,1.758.043.629.055.824-.208.771-.8-.039-.437-.008-.879-.008-1.319" transform="translate(-477.489 -205.7)" fill="#fff"></path><path id="Path_15" data-name="Path 15" d="M687.641,275.81V248.646c.353,0,.664-.016.974,0,3.033.187,6.065.393,9.1.559.529.029.655.239.654.719-.009,7.868,0,15.736-.025,23.6,0,.232-.248.638-.431.67-3.306.576-6.62,1.108-9.933,1.645a1.5,1.5,0,0,1-.338-.035m4.642-18.743c0-1.731,0-1.731-1.7-1.8-.049,0-.1,0-.147,0a1.514,1.514,0,0,0-1.652,1.563,1.584,1.584,0,0,0,1.691,1.763c1.811.045,1.811.045,1.811-1.527m1.631-.044c0,1.642,0,1.642,1.67,1.639.122,0,.244-.007.366,0a1.3,1.3,0,0,0,1.34-.923,1.666,1.666,0,0,0-1.587-2.368c-1.787.063-1.789-.005-1.789,1.652" transform="translate(-586.472 -212.058)" fill="#fff"></path><path id="Path_16" data-name="Path 16" d="M464.294,284.517c1.277.058,2.455.027,3.607.187,1.115.154,1.822,1.5,1.674,2.91A2.278,2.278,0,0,1,467.4,289.8c-.856.014-1.713-.051-2.57-.061-.358,0-.542-.117-.539-.509.011-1.516,0-3.033,0-4.714" transform="translate(-395.982 -242.658)" fill="#c93d00"></path><path id="Path_17" data-name="Path 17" d="M417.079,283.913c0,1.747.015,3.283-.023,4.819,0,.149-.327.411-.506.414-.928.017-1.86.005-2.785-.07a2.361,2.361,0,0,1-1.978-2.593,2.393,2.393,0,0,1,2.111-2.566c.17-.015.342,0,.513,0h2.669" transform="translate(-351.202 -242.14)" fill="#c93d00"></path><path id="Path_18" data-name="Path 18" d="M612.507,292.458c.073-.668-.084-1.567.286-1.937.336-.336,1.25-.06,1.9-.117a2.139,2.139,0,0,1,2.1,3.05,1.765,1.765,0,0,1-1.745,1.208c-.612,0-1.225-.055-1.835-.027-.539.024-.679-.218-.651-.7s.006-.979.006-1.469l-.071-.007" transform="translate(-522.392 -247.634)" fill="#c93d00"></path><path id="Path_19" data-name="Path 19" d="M573.846,292.024c0,.44-.031.883.008,1.319.053.593-.142.856-.771.8-.583-.051-1.173-.016-1.758-.043a1.94,1.94,0,0,1-1.85-2.2,1.909,1.909,0,0,1,2-2.048,18.2,18.2,0,0,1,1.9.083.685.685,0,0,1,.448.473,14.4,14.4,0,0,1,.022,1.611Z" transform="translate(-485.69 -247.212)" fill="#c93d00"></path><path id="Path_20" data-name="Path 20" d="M698.879,295.494c0,1.571,0,1.571-1.81,1.527a1.584,1.584,0,0,1-1.691-1.763,1.515,1.515,0,0,1,1.652-1.563c.049,0,.1,0,.146,0,1.7.064,1.7.064,1.7,1.795" transform="translate(-593.069 -250.485)" fill="#c93d00"></path><path id="Path_21" data-name="Path 21" d="M730.278,296.044c0-1.657,0-1.589,1.789-1.652a1.666,1.666,0,0,1,1.587,2.368,1.3,1.3,0,0,1-1.34.923c-.121-.008-.244,0-.365,0-1.67,0-1.67,0-1.67-1.639" transform="translate(-622.837 -251.079)" fill="#c93d00"></path></g></g><path id="Ellipse_2" data-name="Ellipse 2" d="M108.5,0h3.038l.075,0,.086,0h.564l.044,0h.259l.043,0,.044,0,.042,0,.044,0,.044,0,.044,0,.042,0,.043,0,.043,0,.044,0,.042,0,.044,0,.043,0,.044,0,.042,0,.044,0,.043,0,.044,0,.042,0,.044,0,.043,0,.044,0h.042l.044,0,.044,0h.3l.042,0,.042,0,.04,0h.043l.03,0h.012l.031,0h.012l.042,0,.044,0,.042,0,.043,0,.032,0h0l.466.026h0l.039,0h0l.037,0h.006l.043,0,.043,0,.036,0h.007l.036,0h.007l.034,0h.009l.043,0,.043,0,.043,0,.043,0,.044,0,.042,0,.043,0,.042,0,.044,0,.043,0,.043,0,.043,0,.043,0,.042,0,.043,0,.043,0,.044,0,.042,0,.029,0h.015l.043,0,.028,0h.016l.028,0h.014l.03,0h.012l.043,0,.031,0h.013l.03,0h.013l.029,0h.014l.043,0,.028,0h.015l.042,0,.042,0,.042,0,.044,0,.043,0,.043,0,.043,0,.043,0,.042,0,.041,0,.042,0,.044,0,.041,0,.043,0,.034,0h.008l.044,0,.033,0h.008l.035,0h.007l.036,0h0l.045,0,.037,0h0l.04,0h.005l.717.06h0l.038,0h0l.041,0h0l.041,0h0l.082.007h0l.04,0h0l.038,0h.006l.037,0h0l.043,0,.042,0,.043,0,.036,0h.006l.043,0,.042,0,.043,0,.042,0,.043,0,.042,0,.043,0,.041,0,.043,0L119,.5l.043,0,.042,0,.043,0,.033,0h.01l.032,0h.01l.033,0h.009l.043,0,.042,0,.043,0,.042,0,.043,0,.041,0,.042,0,.036,0h.006l.037,0h.005l.037,0h.005l.043,0,.036,0h.005l.037,0h.006l.037,0h0l.039,0h0l.039,0h0l.04,0h0l.04,0h0c.492.052.982.107,1.473.165h0l.252.03h0L121.78.8h0l.04,0h0l.04,0h0l.04,0h0l.041.005h0l.041.005h0l.041.005h0l.04,0h0l.04,0h0l.039,0h0l.039,0h0l.04.005h0l.04.005h0l.042.005h0a108.077,108.077,0,0,1,41.036,13.962h0l.034.02h0l.034.02h0l.068.04h0l.033.019h0l.032.019,0,0,.033.019h0l.033.019,0,0,.033.019h0l.034.02h0l.069.041h0l.034.02h0l.033.02,0,0,.033.019h0l.032.019,0,0,.032.019h0l.033.019,0,0,.032.019h0l.033.019,0,0,.032.019h0l.032.019,0,0,.03.018.005,0,.029.017.006,0,.029.017,0,0,.031.018,0,0,.031.018,0,0,.032.019h0c.288.172.576.347.862.522h0l.03.018.005,0,.027.017.008,0,.024.015.011.007.025.016.009.005.026.016.008,0,.027.017.007,0,.026.016.009.006.025.016.009.006.024.015.012.007.023.014.012.008.021.013.013.008.022.014.012.008.022.013.013.008.023.014.011.007.022.014.013.008.022.014.013.008.02.013.015.009.019.012.016.01.018.011.017.011.018.011.016.01.019.012.016.01.019.012.015.009.019.012.015.01.02.012.015.009.019.012.017.01.018.011.017.01.017.011.018.011.017.01.018.011.016.01.019.012.016.01.018.011.016.01.019.012.017.01.018.011.016.01.019.012.015.01.019.012.014.009.02.013.015.009.02.013.014.009.02.013.015.009.02.013.014.009.02.013.015.01.019.012.014.009.021.013.013.008.022.014.011.007.022.014.013.008.021.013.013.008.022.014.012.008.023.015.011.007.022.014.013.008.022.014.012.008L166.9,17l.01.006.027.017.007,0,.026.017.009.006.025.016.009.006.024.016.01.007.026.017.008.005.022.014.013.008.029.019,0,0,.034.022h0l.481.311,0,0,.031.02h0l.033.021h0l.066.043,0,0,.031.02,0,0,.031.02,0,0,.031.02,0,0,.03.02.006,0,.029.019,0,0,.031.02,0,0,.032.021h0l.032.021.006,0,.029.019,0,0,.029.019,0,0,.03.02,0,0,.029.019.007,0,.028.018,0,0,.03.02,0,0,.031.02,0,0,.03.02.005,0,.03.02,0,0,.031.021,0,0,.032.021h0l.032.021,0,0,.032.021h0l.034.022h0l.067.045h0l.033.022h0l.033.022h0l.033.022h0l.032.021,0,0,.032.022h0l.1.068h0A109.265,109.265,0,0,1,184,30.482h0l.058.056h0l.116.113h0l.029.028h0l.028.027,0,0,.028.027h0l.028.027,0,0,.028.027h0l.028.027,0,0,.027.026,0,0,.026.026,0,0,.026.026,0,0,.026.025,0,0,.026.026,0,0,.027.027,0,0,.028.027h0l.027.026,0,0,.027.027h0l.027.026,0,0,.026.026,0,0,.025.025,0,0,.025.025,0,0,.025.025,0,0,.027.027h0l.026.025,0,0,.027.026,0,0,.026.026,0,0,.027.026,0,0,.023.023.006.006.026.026,0,0,.026.026,0,0,.056.056,0,0,.058.057h0l.054.053.007.007.055.055,0,0,.053.053.014.014.015.014.016.016.012.012.016.016.013.013.018.018.01.01.018.018.011.011.016.016.013.013.014.014.015.015.014.014.014.014.015.015.014.014.016.016.012.012.017.017.012.012.018.018.01.01.018.018.011.011.018.018.011.011.017.017.012.012.018.018.009.009.019.019.01.01.019.019.009.009.019.019.01.01.02.02.008.008.02.02.009.009.019.019.01.01.018.018.011.011.018.019.009.009.019.019.009.01.019.02.009.009.02.02.009.009.02.021.007.007.021.021.008.008.02.021.008.008.02.02.009.009.02.02.008.008.021.021.008.008.021.021.007.007.021.021.008.008.021.022.006.006.022.023.007.007.021.022.007.007.02.021.009.009.02.021.007.007.021.022.007.007.022.022.006.006.022.023.007.007.022.023,0,0,.024.025,0,0,.025.025,0,0,.024.025,0,0,.024.025,0,0,.026.027h0l.027.028h0l.027.028h0A109.206,109.206,0,0,1,200.7,51.048h0q.472.752.931,1.511l0,0,.02.032v0l.019.032,0,0,.019.031,0,0,.017.028,0,.008.016.027,0,.007.017.028,0,.007.017.028,0,.007.016.026.006.009.016.026,0,.008.016.026.005.009.016.026.006.009.014.024.007.012.014.024.006.01.015.024.006.011.015.025.006.01.014.023.008.013.014.023.007.011.014.024.007.012.014.023.008.013.012.021.009.015.012.021.008.013.013.021.008.014.013.022.008.013.013.022.008.013.013.022.007.012.014.023.007.012.014.024.006.011.014.023.008.014.013.022.008.013.013.021.008.014.012.021.009.014.012.02.009.015.012.02.009.015.011.019.009.016.012.02.009.015.011.019.01.018.01.018.01.017.01.017.01.016.012.02.008.014.012.02.01.016.011.019.009.015.011.02.008.015.012.021.008.014.012.02.011.02.009.016.012.021.008.014.012.021.008.014.038.066,0,0,.082.142v0l.02.034v0l.019.033,0,.008.016.029h0l.019.034.007.012.014.024.008.014.012.02.009.015.012.021.006.011.014.024.008.013.013.022.007.013.013.023.007.012.014.025,0,.008.016.027,0,.009.016.027,0,.007.016.028,0,.009.016.028,0,.007.016.028,0,.009.016.027,0,.008.016.027.005.009.015.027,0,.007.016.028,0,.008.016.028,0,.008.015.027.005.009.016.027,0,.007.016.029,0,.008.016.029,0,.006.016.029,0,.008.016.029,0,.006.016.029,0,.007.017.03,0,0,.017.03,0,.006.018.031,0,0,.018.032,0,0,.018.032,0,0,.017.03,0,.006.017.031,0,0,.017.031,0,.006.017.03,0,.005.016.029,0,.007.017.03,0,.005.017.03,0,.005.018.031,0,0,.018.032,0,0,.018.032,0,0,.018.033v0l.019.034h0l.019.034v0l.039.07v0a108.214,108.214,0,0,1,13.532,50.113l-1.891.043A106.77,106.77,0,0,0,108.5,1.891V0ZM1.887,116.176A106.871,106.871,0,0,0,108.5,215.62c1.645,0,3.311-.038,4.949-.113l.086,1.889-.091,0-.045,0-.042,0q-1.349.059-2.706.086h-.042l-.264,0h-.173l-.177,0h-5.437l-.1,0-.049,0h-.153l-.043,0-.043,0-.042,0-.042,0-.043,0-.043,0-.042,0-.044,0-.042,0-.043,0-.043,0-.044,0h-.061l-.042,0-.043,0-.1,0-.043,0-.048,0-.041,0-.045,0-.045,0-.043,0-.042,0-.042,0-.043,0-.044,0-.043,0-.043,0-.043,0-.043,0-.042,0-.042,0H102.7l-.045,0-.044,0-.044,0-.055,0-.043,0-.042,0-.042,0H102.3l-.042,0-.042,0-.043,0-.043,0-.043,0-.042,0-.043,0-.043,0-.042,0-.042,0-.045,0-.044,0-.042,0-.041,0-.045,0-.046,0-.1-.006-.043,0-.042,0-.043,0h-.017l-.025,0h-.018l-.042,0-.043,0-.043,0-.043,0-.042,0-.042,0-.043,0-.043,0-.042,0-.043,0-.043,0-.042,0-.042,0-.042,0-.042,0-.042,0-.128-.009-.043,0-.042,0-.042,0-.042,0-.042,0-.042,0-.042,0-.042,0-.042,0-.042,0-.043,0-.043,0-.042,0-.043,0-.044,0-.044,0-.041,0-.043,0-.044,0H99.7l-.128-.01-.042,0-.042,0-.041,0-.043,0-.042,0-.042,0-.042,0-.043,0h-.014l-.028,0-.042,0-.041,0-.043,0-.042,0-.043,0-.042,0-.043,0-.042,0-.042,0-.041,0-.047,0-.053,0h0l-.086-.008-.042,0-.042,0-.042,0-.042,0-.042,0-.042,0-.042,0-.042,0-.043,0-.042,0-.042,0-.041,0-.043,0-.043,0-.043,0-.042,0-.047,0-.044,0h-.006l-.084-.008h0l-.17-.017-.042,0-.041,0-.042,0-.041,0-.043,0-.042,0-.043,0-.042,0-.043,0-.042,0-.042,0-.042,0-.044,0-.042,0-.043,0-.044,0-.043,0-.045,0h-.006l-.17-.018h0l-.045,0-.044,0-.044,0-.046-.005-.042,0-.043,0-.041,0-.042,0-.042,0-.043,0-.042,0-.043,0-.041,0-.043,0-.041,0-.042,0-.041,0-.043,0-.169-.02-.043-.005h0l-.047-.006-.041,0-.045-.005-.042-.005-.043-.005-.043-.005-.043-.005-.041,0-.041,0-.042-.005-.03,0-.013,0-.041-.005-.042-.005-.043-.005-.042-.005-.041-.005-.041-.005-.039,0h0l-.042-.005-.168-.021-.042-.005-.042-.005-.041-.005-.042-.005-.042-.005-.042-.005-.013,0-.029,0-.013,0-.029,0-.014,0-.041-.005-.029,0-.013,0-.029,0-.041-.005-.042-.006-.042-.006-.043-.006-.043-.006-.047-.006h0l-.039-.005h0l-.169-.023h0l-.041-.006h0l-.036,0-.042-.006-.041-.006-.042-.006-.041-.006-.014,0-.028,0-.013,0-.028,0-.014,0-.042-.006-.042-.006-.028,0-.013,0-.029,0-.042-.006-.042-.006-.042-.006-.043-.006L93,216.415H92.99l-.037-.005h0l-.211-.03h0l-.04-.006h0l-.039-.006h0l-.037-.005-.041-.006-.042-.006-.042-.006-.041-.006-.042-.006-.011,0-.031,0-.011,0-.031,0-.041-.006-.041-.006L92.2,216.3l-.043-.007-.042-.006-.044-.007H92.06l-.036-.005h-.006l-.251-.039h0l-.038-.006h0l-.037-.006h-.007l-.036-.006h-.006l-.034-.005-.042-.007-.042-.007-.042-.007-.01,0-.042-.007-.031,0-.042-.007-.01,0-.033-.005-.041-.006-.043-.007-.042-.007-.042-.007-.042-.007h-.007l-.334-.054h-.005l-.037-.006h0l-.037-.006h-.006l-.035-.006-.041-.007-.042-.007-.042-.007-.041-.007-.011,0-.031-.005-.042-.007h-.009L90.341,216,90.3,216l-.042-.007h-.008l-.037-.006h0l-.039-.007h0l-.335-.057h0l-.041-.007h0l-.039-.007h0l-.038-.007h0l-.036-.006-.041-.007-.041-.007-.042-.007h-.008l-.033-.006h-.008l-.034-.006h-.008l-.033-.006H89.41l-.034-.006h-.006l-.035-.006h-.007l-.035-.006-.04-.007h-.008l-.035-.006H89.2l-.039-.007h0l-.334-.06h0l-.04-.007h0l-.038-.007H88.74l-.036-.007H88.7l-.035-.006h-.008l-.033-.006-.009,0-.032-.006-.01,0-.032-.006-.009,0-.033-.006-.008,0-.034-.006H88.45l-.035-.007h-.007l-.035-.007h-.005l-.036-.007h-.005l-.039-.007h0l-.039-.007h0l-.332-.063h0l-.038-.007h0l-.037-.007h-.006l-.036-.007h0l-.036-.007h-.008l-.035-.007H87.7l-.035-.007h-.007l-.035-.007h-.006l-.034-.007h-.007l-.035-.007h-.006l-.036-.007h0l-.039-.008h0l-.039-.008h0l-.04-.008h0l-.456-.091h0l-.038-.008h0l-.038-.008h0l-.036-.007h-.006l-.034-.007-.009,0-.032-.006-.009,0-.032-.006-.01,0-.03-.006-.011,0-.03-.006-.011,0-.031-.006-.009,0-.033-.007-.008,0-.034-.007h-.007l-.034-.007h-.007L86,215.182h0l-.038-.008h0l-.035-.007-.008,0-.033-.007h-.007l-.033-.007-.009,0-.032-.007-.01,0-.031-.007-.01,0-.032-.007-.009,0-.033-.007-.008,0-.033-.007-.007,0-.034-.007h-.006l-.036-.008h-.005l-.037-.008h0l-.039-.008h0l-.412-.09h0l-.039-.008h0l-.038-.008h0l-.038-.008h0l-.037-.008h0l-.037-.008h0l-.036-.008h0l-.036-.008h-.006l-.036-.008h0l-.036-.008h0l-.037-.008h0l-.037-.008h0l-.039-.009h0l-.452-.1h0l-.04-.009h0l-.038-.009h0l-.036-.008h-.005l-.034-.008-.009,0-.032-.007-.009,0-.033-.008-.007,0-.034-.008h-.006l-.034-.008-.007,0-.034-.008h-.006l-.037-.009h0l-.039-.009h0l-.038-.009h0l-.45-.106h0l-.038-.009h0l-.037-.009h0l-.038-.009h0L83,214.5H82.99l-.034-.008-.007,0-.034-.008h-.006l-.036-.009h0l-.037-.009h0l-.038-.009h0l-.039-.009h0l-.039-.01h0l-.53-.13h0l-.038-.01h0l-.038-.009h0l-.037-.009h0l-.036-.009h0l-.035-.009-.006,0-.036-.009h0l-.038-.01h0l-.039-.01h0l-.529-.135h0l-.039-.01h0l-.038-.01h0l-.038-.01h0l-.038-.01h0l-.037-.01h0l-.036-.009h-.005l-.036-.009h0L81,214H80.99l-.037-.01h0l-.038-.01h0l-.567-.15h0l-.038-.01h0l-.038-.01h0l-.039-.01h0l-.039-.01h0l-.037-.01h0l-.038-.01h0l-.039-.01h0l-.038-.01h0l-.606-.166h0l-.038-.011h0l-.037-.01h0l-.038-.01h0l-.037-.01h0l-.037-.01h0l-.037-.01h0l-.038-.011h0l-.038-.011h0l-.038-.011h0l-.563-.16h0l-.039-.011h0l-.038-.011h0l-.038-.011h0l-.039-.011h0l-.039-.011h0l-.039-.011h0c-.268-.078-.535-.156-.8-.235h0L77.4,213h0l-.039-.012h0l-.079-.024h0l-.639-.193h0l-.038-.012h0l-.038-.012h0l-.038-.012h0l-.037-.012h0l-.037-.012h0L76.4,212.7h0l-.677-.211h0l-.038-.012h0l-.038-.012h0l-.039-.012h0l-.038-.012h0l-.037-.012h0l-.038-.012h0l-.675-.217h0l-.079-.026h0l-.039-.013h0l-.039-.013h0l-.038-.012h0l-.038-.013h0l-.633-.21h0l-.039-.013h0l-.039-.013h0l-.078-.026h0l-.039-.013h0l-.038-.013h0l-.039-.013h0l-.038-.013h0l-.551-.188h0l-.039-.013h0l-.037-.013h0l-.036-.013h0l-.038-.013h0l-.077-.027h0c-.262-.091-.523-.183-.784-.276h0l-.156-.055h0l-.625-.226h0l-.038-.014h0l-.037-.013h0l-.035-.013h0l-.035-.013,0,0-.036-.013h0l-.038-.014h0l-.038-.014h0l-.039-.014h0l-.623-.231h0l-.038-.014h0l-.039-.015h0l-.077-.029h0l-.621-.236h0l-.076-.029h0l-.038-.015h0l-.037-.014h0l-.036-.014h0l-.037-.014h0l-.038-.015h0l-.037-.014h0l-.037-.014h0l-.54-.211h0l-.037-.015h0l-.036-.014h0l-.037-.015h0l-.036-.014h0l-.036-.014h0l-.037-.015h0l-.038-.015h0l-.076-.03h0l-.576-.231h0L67.7,209.6h0l-.036-.014h0l-.036-.014h0l-.035-.014h0l-.035-.014h0l-.037-.015h0l-.037-.015h0l-.037-.015h0l-.038-.015h0l-.46-.189h0l-.037-.015h0l-.035-.015,0,0-.034-.014,0,0-.033-.014-.006,0-.033-.014,0,0-.035-.014h0l-.036-.015h0l-.037-.015h0l-.076-.032h0l-.381-.16h0l-.037-.015h0l-.037-.016h0l-.037-.016h0l-.036-.015,0,0-.034-.014,0,0-.034-.014-.005,0-.032-.014-.006,0-.031-.013-.007,0-.032-.014,0,0-.035-.015h0l-.036-.015h0l-.035-.015,0,0-.036-.015h0l-.417-.18h0l-.036-.016h0l-.036-.016h0l-.034-.015,0,0-.033-.014-.007,0-.031-.014-.006,0-.032-.014-.007,0-.031-.013-.007,0-.03-.013-.008,0-.032-.014,0,0-.034-.015h0l-.035-.016h0l-.035-.016h0l-.452-.2h0l-.035-.016h0l-.036-.016h0l-.035-.015h0l-.033-.015-.005,0-.033-.015,0,0-.034-.015,0,0-.034-.015,0,0-.033-.015,0,0-.035-.016h0l-.036-.016h0l-.451-.2h0l-.036-.017h0l-.036-.016,0,0-.034-.016h0l-.035-.016h0l-.035-.016h0l-.035-.016,0,0-.035-.016h0l-.035-.016h0l-.073-.033h0l-.037-.017h0l-.411-.19,0,0-.034-.016h0l-.034-.016,0,0-.034-.016h0l-.033-.015-.007,0-.031-.014-.005,0-.032-.015-.006,0-.032-.015,0,0-.032-.015-.005,0-.034-.016h0l-.034-.016h0l-.035-.016h0l-.035-.016h0l-.372-.176h0l-.036-.017,0,0L61.8,207l-.005,0-.032-.015,0,0-.033-.016-.006,0-.031-.015-.006,0-.03-.014-.008,0-.03-.014-.006,0-.031-.015-.006,0-.03-.014-.007,0-.029-.014-.008,0-.032-.015,0,0-.032-.015-.006,0-.032-.015,0,0-.03-.014-.008,0-.035-.017h0l-.26-.126h0l-.073-.036h0l-.034-.017h0l-.034-.016,0,0-.033-.016,0,0-.032-.016-.006,0-.03-.015-.007,0-.029-.014-.008,0-.03-.015-.006,0-.03-.015-.007,0-.03-.015-.007,0-.031-.015,0,0-.033-.016,0,0-.034-.017h0l-.035-.017h0l-.295-.146,0,0-.033-.016-.007,0-.03-.015-.006,0-.031-.015-.006,0-.03-.015-.007,0-.029-.015-.007,0-.029-.015-.007,0-.029-.015-.008,0-.029-.014-.007,0-.029-.014-.009,0-.029-.014-.007,0-.031-.016-.005,0-.033-.017h0l-.033-.016,0,0-.034-.017h0l-.036-.018h0l-.293-.148,0,0-.032-.016-.007,0-.029-.015-.009,0-.027-.014-.008,0-.028-.014-.008,0-.029-.015-.008,0-.028-.014-.01-.005-.027-.014-.01,0-.027-.014-.009,0-.027-.014-.01-.005-.025-.013-.012-.006-.026-.013-.01-.005-.028-.014-.007,0-.03-.016-.006,0-.03-.016-.006,0-.033-.017h0l-.255-.132h0l-.034-.018,0,0-.032-.017-.006,0-.029-.015-.009,0-.027-.014-.01-.005-.026-.014-.009,0-.027-.014-.009,0-.027-.014-.009,0-.026-.014-.01-.005-.026-.014-.009,0-.027-.014-.009,0-.028-.015-.008,0-.027-.014-.01-.005-.028-.015-.007,0-.029-.015-.007,0L58,205.1l0,0-.032-.017,0,0-.145-.076,0,0-.033-.018h0l-.034-.018-.007,0-.029-.015-.009,0-.026-.014-.011-.006-.026-.014-.009,0-.026-.014-.011-.006-.025-.013-.011-.006-.024-.013-.012-.006-.025-.013-.01-.006-.025-.013-.011-.006-.024-.013-.013-.007-.022-.012-.014-.007-.023-.012-.012-.007-.023-.012-.012-.007-.023-.013-.013-.007-.022-.012-.014-.007-.023-.012-.012-.007-.023-.012-.013-.007-.022-.012-.014-.007-.024-.013-.011-.006-.071-.038,0,0-.031-.017-.009-.005-.026-.014-.012-.006-.024-.013-.013-.007-.022-.012-.014-.008-.021-.012-.014-.008-.021-.011-.016-.009-.02-.011-.016-.008-.02-.011-.016-.009-.019-.01-.016-.009-.019-.01-.018-.01-.018-.01-.017-.009-.019-.01-.016-.009-.02-.011-.014-.008-.021-.011-.015-.008-.021-.011-.014-.008-.023-.012-.013-.007-.026-.014-.009,0-.026-.014-.01-.006-.026-.014-.009,0-.026-.014-.01-.005-.107-.059,0,0-.031-.017-.012-.006-.024-.013-.013-.007-.021-.012-.017-.009-.019-.01-.016-.009-.019-.011L56,204.024l-.02-.011L55.963,204l-.02-.011-.016-.009-.02-.011-.015-.008-.02-.011-.016-.009-.021-.012-.015-.008-.019-.011-.017-.009-.019-.011-.016-.009-.019-.011-.016-.009-.02-.011-.015-.009-.019-.011-.016-.009-.019-.011-.016-.009-.019-.011-.016-.009-.02-.011-.016-.009-.017-.009-.019-.01-.018-.01-.017-.009-.024-.014-.011-.006-.035-.02-.009,0-.026-.015-.013-.007-.023-.013-.009-.005-.026-.015-.011-.006-.024-.013-.014-.008-.02-.011-.017-.01-.018-.01-.016-.009-.02-.011-.016-.009-.019-.011-.016-.009-.019-.011-.017-.009-.019-.011-.016-.009-.019-.011-.017-.01-.017-.01-.018-.01-.017-.01-.019-.011-.017-.01-.017-.01-.019-.011-.016-.009-.018-.01-.017-.01-.018-.01-.018-.01-.02-.011-.014-.008-.021-.012-.014-.008-.019-.011-.015-.009-.016-.009-.019-.011-.02-.011-.014-.008-.035-.02-.01-.005-.026-.015-.012-.007-.022-.013-.015-.009-.02-.012-.016-.009-.018-.01-.018-.01-.017-.01-.018-.01-.016-.009-.019-.011-.017-.01-.017-.01-.018-.01-.017-.01-.019-.011-.015-.009-.02-.011-.015-.009L54.193,203,54.179,203l-.019-.011-.016-.009-.018-.01-.017-.01-.017-.01-.018-.01-.019-.011-.015-.009-.019-.011-.016-.01-.018-.011-.017-.01-.017-.01-.017-.01-.017-.01-.017-.01-.016-.009-.019-.011-.015-.009-.02-.012h0l-.059-.035-.008,0-.018-.01-.017-.01-.017-.01-.017-.01-.016-.009-.019-.011-.016-.01-.019-.011-.016-.009-.019-.011-.017-.01-.017-.01-.018-.011-.016-.009L53.5,202.6l-.016-.009-.017-.01-.018-.01-.018-.01-.017-.01-.018-.01-.017-.01-.019-.011-.015-.009-.019-.011-.015-.009-.019-.011-.015-.009-.02-.012-.014-.008-.021-.012-.013-.008-.021-.012-.016-.009-.019-.011-.016-.01-.017-.01-.017-.01-.018-.011-.015-.009-.02-.012-.012-.007-.117-.069-.008,0-.022-.013-.013-.008-.018-.011-.017-.01-.019-.011-.014-.009-.021-.013-.013-.008-.021-.012-.014-.008-.02-.012-.016-.009-.019-.011-.014-.008-.021-.013-.014-.008-.02-.012-.015-.009-.019-.011-.016-.01-.019-.011-.014-.009-.02-.012-.014-.008-.02-.012-.014-.008-.02-.012-.014-.009-.021-.012-.011-.007-.023-.014-.009-.006-.025-.015-.009-.005-.025-.015-.009-.005-.222-.134-.007,0-.021-.013-.014-.008-.021-.013L52,201.706l-.022-.013-.012-.007-.022-.014-.012-.007-.021-.013-.013-.008-.022-.013-.012-.007-.022-.013-.013-.008-.022-.013-.013-.008-.02-.012-.015-.009-.02-.012-.014-.009-.02-.012-.013-.008-.022-.014-.01-.006-.023-.014-.011-.007-.023-.014-.009-.005-.025-.015-.009-.005-.026-.016-.007,0-.026-.016-.01-.006-.025-.015h0l-.164-.1h0l-.031-.019h0l-.026-.016-.009-.006-.024-.015-.01-.006-.023-.014-.011-.007-.023-.014-.01-.006-.023-.014-.012-.007-.023-.014-.011-.007-.023-.014-.012-.007-.022-.014L51,201.086l-.023-.014-.012-.007-.023-.014-.01-.006-.024-.015-.011-.007-.023-.015-.01-.006-.024-.015-.011-.007-.023-.014-.009-.006-.025-.016-.007,0-.027-.017,0,0-.03-.019h0l-.2-.124h0l-.028-.018-.006,0-.026-.016-.008,0-.026-.016-.008,0-.025-.016-.009-.006-.025-.016-.009-.006-.024-.015-.01-.006-.024-.015-.009-.006-.024-.015-.01-.006-.024-.016-.009-.006-.024-.015-.01-.007-.024-.015-.008-.005-.025-.016-.008,0-.026-.017-.007,0-.026-.017-.007,0-.027-.017,0,0-.029-.019,0,0-.293-.188h0l-.029-.019,0,0-.028-.018,0,0-.028-.018-.006,0-.027-.018-.006,0-.026-.017-.008-.005-.025-.016-.007,0-.025-.016-.009-.006-.024-.016-.009-.006-.025-.016-.009-.006-.025-.016-.006,0-.027-.018-.006,0-.027-.018-.006,0-.027-.018-.006,0-.028-.018,0,0-.326-.213h0l-.03-.019,0,0-.03-.02,0,0-.031-.02h0l-.031-.02h0l-.029-.019,0,0-.028-.019,0,0-.028-.019,0,0-.029-.019,0,0-.028-.019-.006,0-.028-.019,0,0-.03-.02h0l-.064-.043h0l-.391-.26h0l-.064-.043h0l-.032-.021h0l-.031-.021h0l-.031-.021h0l-.032-.021h0l-.031-.021h0l-.031-.021,0,0A109.234,109.234,0,0,1,34.13,188.112q-1.923-1.8-3.757-3.7h0l-.025-.026,0,0-.024-.025,0,0-.024-.024,0,0-.023-.024,0,0-.022-.023-.006-.006-.022-.023-.006-.006-.021-.022-.007-.007-.021-.022-.006-.007-.02-.021-.008-.008-.02-.021-.006-.006-.021-.021-.007-.007-.021-.022,0,0-.023-.024,0,0-.051-.053,0,0-.159-.166,0,0-.026-.027h0l-.021-.022-.007-.008-.019-.02-.009-.009-.017-.018-.011-.012-.016-.017-.01-.011-.017-.018-.011-.011-.016-.017-.011-.012L29.6,183.6l-.012-.012-.016-.017-.01-.011-.017-.018-.011-.012-.016-.017-.012-.012-.015-.016-.013-.013-.015-.016-.011-.012-.017-.018-.011-.011L29.4,183.4l-.011-.012-.016-.017-.012-.013-.016-.017-.01-.01-.018-.019-.01-.01-.017-.018-.017-.018-.01-.011-.027-.029-.005-.006-.022-.023-.012-.012-.016-.017-.011-.011-.017-.018-.012-.013-.015-.016-.013-.014-.014-.015-.014-.015-.014-.015-.011-.012-.016-.018-.011-.012-.016-.017-.011-.012-.016-.017-.012-.013-.016-.017-.01-.011-.017-.018-.011-.012-.016-.018-.011-.012-.016-.017-.012-.013-.016-.018-.01-.011-.018-.02-.009-.01-.019-.021-.008-.008-.019-.02-.009-.01-.02-.022-.006-.007-.022-.024-.005-.006-.025-.027,0,0-.024-.026,0,0-.109-.118-.006-.006-.022-.024,0,0-.022-.024-.008-.009-.02-.021-.007-.007-.02-.022-.008-.009-.02-.022-.007-.007-.02-.022-.008-.008-.02-.022-.007-.008-.02-.021-.008-.009-.02-.021-.007-.008-.019-.021-.008-.009-.02-.022-.007-.007-.02-.022-.007-.008-.021-.023-.006-.007-.02-.022-.007-.007-.021-.024-.005-.006L28.108,182l0,0-.218-.24h0l-.026-.029,0,0-.024-.027,0,0-.024-.026,0,0-.024-.026,0-.005-.023-.025,0,0-.023-.025,0-.005-.022-.025,0,0-.023-.025,0,0-.024-.026,0,0-.024-.027,0,0-.026-.028h0l-.025-.028,0,0-.025-.028h0l-.026-.029h0l-.379-.425h0l-.026-.03h0l-.027-.03h0l-.054-.061h0A109.207,109.207,0,0,1,18.546,169.9h0l-.045-.066h0l-.045-.067h0l-.32-.474h0l-.045-.067h0l-.022-.033h0l-.022-.033h0l-.089-.134,0,0-.022-.033h0l-.316-.477,0,0-.02-.03,0-.006-.019-.029,0,0-.019-.029,0-.006-.018-.028,0-.006-.018-.028,0-.007-.019-.029,0,0-.02-.03,0,0-.02-.03,0,0-.019-.029,0-.006-.021-.032h0l-.2-.308h0l-.022-.034h0l-.021-.033,0,0-.019-.03,0,0-.019-.029,0-.007-.017-.027-.006-.009-.016-.024-.007-.011-.016-.024-.006-.009-.015-.024-.007-.01-.016-.024-.006-.01-.016-.025-.006-.009-.017-.026-.005-.008-.017-.026-.005-.008-.016-.025-.006-.009-.015-.024-.007-.01-.016-.025-.006-.009-.017-.027,0-.007-.018-.029,0-.006-.11-.172,0,0-.02-.032,0,0-.019-.03,0,0L16.634,167l0-.006-.018-.028,0-.007-.017-.027-.005-.008-.016-.025-.007-.01-.015-.023-.007-.011-.014-.022-.008-.013-.013-.021-.008-.012-.014-.022-.008-.012-.014-.023-.007-.011-.014-.022-.008-.013-.013-.021-.008-.013-.014-.022-.008-.013-.014-.022-.007-.012-.014-.022-.008-.013-.014-.022-.007-.011-.016-.025-.006-.009-.064-.1,0-.008-.016-.026-.008-.012L16.2,166.3l-.01-.016-.011-.017-.011-.018-.011-.017-.01-.016-.011-.018-.01-.015-.012-.019-.01-.015-.011-.018-.01-.017-.011-.018-.01-.016-.011-.018-.01-.016-.011-.018-.01-.016L16.007,166,16,165.98l-.011-.017-.01-.017-.011-.018-.01-.016-.012-.019-.009-.015-.011-.018-.01-.017-.011-.017-.011-.017-.01-.016-.011-.018-.01-.017-.011-.018-.008-.013-.013-.022-.006-.01-.015-.024-.005-.009-.015-.025v0l-.039-.063h0l-.014-.023-.007-.011-.012-.019L15.7,165.5l-.012-.02-.008-.014-.013-.021-.008-.013-.013-.021-.008-.013-.012-.02-.009-.015-.012-.02-.009-.014-.012-.02-.008-.014-.013-.022-.007-.012-.013-.022-.008-.013-.013-.021-.007-.012-.014-.023-.006-.01-.015-.025-.005-.008-.015-.025-.006-.011-.015-.024,0-.008-.016-.026,0-.007L15.4,165l0,0-.017-.029,0-.008-.016-.027,0,0-.138-.229,0,0-.018-.03,0,0-.017-.029,0-.006-.017-.029,0-.005-.016-.026-.006-.009-.015-.025-.005-.009L15.1,164.5l0-.008-.016-.027,0-.007-.016-.026-.006-.009-.015-.025-.005-.009-.015-.026,0-.008-.016-.026,0-.007-.016-.027,0-.007-.016-.027,0-.005-.017-.029,0,0-.018-.03h0l-.239-.4v0l-.018-.031,0,0-.018-.031v0l-.018-.031,0,0-.018-.03,0,0-.018-.03,0,0-.019-.032h0l-.019-.033h0q-2.161-3.7-4.034-7.576a108.083,108.083,0,0,1-4.223-10h0l-.027-.074h0l-.013-.037h0l-.013-.037h0l-.013-.036v0l-.013-.035v0l-.013-.035h0c-.063-.174-.125-.347-.187-.521v0l-.011-.031,0-.008-.011-.03,0-.008-.011-.03,0-.008-.011-.031,0-.007L5.927,145l0-.009-.01-.03,0-.008-.011-.03,0-.008-.011-.03,0-.008-.01-.029,0-.01-.01-.029,0-.007-.011-.031,0-.006-.011-.033v0l-.012-.034,0-.006-.1-.289,0-.008-.01-.029,0-.009-.01-.028,0-.01-.01-.028,0-.01-.009-.026,0-.014-.008-.024,0-.013-.009-.025,0-.014-.008-.024,0-.014-.008-.024-.005-.015-.008-.024,0-.014-.009-.025,0-.013-.009-.025,0-.013-.008-.025,0-.014-.008-.024,0-.013-.009-.025,0-.013-.009-.025,0-.012-.009-.027,0-.011-.009-.028,0-.008-.01-.03v0l-.048-.141,0-.007-.009-.027,0-.012L5.41,143.5l-.005-.016-.007-.022-.006-.017-.007-.021-.006-.018-.007-.021-.006-.018-.007-.02-.006-.019-.007-.02-.006-.019-.006-.019-.007-.02-.006-.019-.007-.02-.006-.019-.007-.02-.006-.019-.006-.019-.006-.019-.007-.02-.006-.019-.007-.021-.006-.017-.007-.022L5.243,143l-.007-.021-.006-.017-.007-.021-.006-.018-.008-.023,0-.015-.008-.026,0-.013-.01-.03,0-.009-.011-.033,0-.007-.026-.078,0-.013-.009-.026,0-.013-.009-.026,0-.013-.009-.026,0-.013-.009-.026,0-.013-.009-.027,0-.012-.009-.027,0-.013-.009-.026,0-.014-.008-.024-.005-.015-.008-.024,0-.014-.008-.026,0-.013L5,142.258l0-.013-.009-.026,0-.013-.008-.026,0-.013-.009-.026,0-.012-.009-.028,0-.011-.009-.028,0-.01-.01-.031,0-.008-.011-.034,0,0-.076-.238h0l-.013-.039v0l-.012-.037,0-.007-.01-.032,0-.009-.009-.03,0-.011-.009-.028,0-.01-.01-.03,0-.009-.009-.03,0-.01-.009-.028,0-.013-.009-.027,0-.011-.009-.029,0-.011L4.7,141.3l0-.01-.009-.029,0-.011-.009-.03,0-.008-.01-.031,0-.009-.009-.03,0-.009-.009-.03,0-.01-.011-.034v0l-.086-.278v0l-.024-.077v0l-.011-.037v0l-.011-.036v0l-.011-.036v0l-.011-.036,0-.006-.01-.033,0-.007-.01-.032,0-.007-.01-.034,0-.005-.011-.035v0l-.011-.036v0l-.011-.038v0c-.065-.214-.128-.427-.192-.641h0l-.012-.04h0l-.012-.04h0l-.023-.079h0A108.1,108.1,0,0,1,.894,124.643h0c-.041-.282-.081-.563-.12-.845v0l-.005-.039v0l-.005-.038v-.005l-.005-.037v0l-.005-.037v-.006l-.005-.037v0l-.005-.039v0l-.005-.04v0l-.005-.039v0l-.005-.041h0c-.019-.141-.038-.282-.056-.424v0l-.005-.04v0l0-.038v0l-.005-.039v-.005l0-.036v-.008l0-.033v-.01l0-.031v-.011l0-.03,0-.013,0-.029,0-.014,0-.029,0-.013,0-.031v-.009l0-.033v-.009l0-.033v-.009l0-.033v-.01l0-.037v0l0-.039v0l-.005-.042h0L.552,122.1v0l0-.039v0l0-.037V122l0-.033v-.011l0-.031v-.012l0-.03v-.012l0-.029,0-.014,0-.028,0-.014,0-.028,0-.014,0-.029v-.012l0-.029,0-.014,0-.029,0-.013,0-.029,0-.013,0-.03v-.013l0-.028,0-.014,0-.028,0-.013,0-.028,0-.014,0-.029v-.013l0-.03v-.013l0-.034v-.008l0-.035v-.007l0-.042,0-.015,0-.026,0-.02,0-.022,0-.019,0-.023,0-.021,0-.021,0-.021,0-.021,0-.021,0-.021,0-.02,0-.022,0-.022,0-.02,0-.022,0-.02,0-.022,0-.019,0-.022,0-.02,0-.023,0-.018,0-.024,0-.018,0-.024,0-.017,0-.024,0-.017,0-.025,0-.016,0-.025,0-.016,0-.026v-.014l0-.028v-.013l0-.029v-.007l0-.035v0l-.021-.2h0l0-.034V120.1l0-.036v-.005l0-.034v-.008l0-.033v-.009l0-.032v-.01l0-.033v-.007l0-.034v-.007l0-.034v-.007l0-.033v-.009l0-.033v-.007l0-.034v-.008l0-.033v-.009l0-.033V119.6l0-.034v0l0-.037h0c-.016-.164-.032-.328-.047-.492h0l0-.039v0l0-.037v-.005l0-.037v0l0-.038v0l0-.039v0l0-.039v0l0-.04h0Q.084,117.527,0,116.305ZM108.5,0V1.891c-3.3,0-6.623.152-9.887.451L98.438.459q2.445-.224,4.92-.34h0l.036,0h0l.037,0h0L103.712.1h0l.036,0h.123L104.1.087h0l.042,0,.041,0,.04,0h.074l.191-.007h.249l.108,0h.288l.151,0h.286l.068,0H108.5Z" transform="translate(69.385 348.735) rotate(-48)" fill="#363636"></path><path id="Icon_ionic-ios-airplane" data-name="Icon ionic-ios-airplane" d="M41.054,15.6c-.349,0-1.519.01-1.848.031l-6.662.175a.19.19,0,0,1-.175-.092L22.382.76A1.65,1.65,0,0,0,21,0H18.563c-.575,0-.77.575-.565,1.109l5.143,14.659a.2.2,0,0,1-.185.277l-12.565.185a.827.827,0,0,1-.677-.318l-3.8-4.619a1.629,1.629,0,0,0-1.293-.626l-4.2.586a.409.409,0,0,0-.39.544l5.084,6.193a1.673,1.673,0,0,1,0,1.222L.023,25.34a.409.409,0,0,0,.39.544l4.2,1.2a1.66,1.66,0,0,0,1.293-.626l3.87-4.691a.841.841,0,0,1,.677-.318l12.493.277a.2.2,0,0,1,.185.277L17.989,36.667c-.205.534-.01,1.109.565,1.109h2.433a1.637,1.637,0,0,0,1.386-.76l10-14.946a.2.2,0,0,1,.175-.092l6.662.175c.339.021,1.5.031,1.848.031,4.547,0,7.422-1.468,7.422-3.285S45.612,15.6,41.054,15.6Z" transform="translate(256.019 314.504) rotate(-39)" fill="#fff"></path></g></svg>