<svg xmlns="http://www.w3.org/2000/svg" xmlns:xlink="http://www.w3.org/1999/xlink" width="75" height="75" viewBox="0 0 75 75">
  <defs>
    <clipPath id="clip-Woocommerce">
      <rect width="75" height="75"/>
    </clipPath>
  </defs>
  <g id="Woocommerce" clip-path="url(#clip-Woocommerce)">
    <g id="logo-woo-sq-full" transform="translate(-22.471 -45.904)">
      <rect id="Rectangle_1726" data-name="Rectangle 1726" width="53.271" height="25.62" rx="12.37" transform="translate(32.924 60.766)" fill="#fff"/>
      <g id="_0Yo8Bo" data-name="0Yo8Bo" transform="translate(32.172 59.904)">
        <path id="Path_951" data-name="Path 951" d="M81.407,92.752a1.561,1.561,0,0,1-.173-.075L74.37,88.851c-.776-.433-1.554-.86-2.344-1.27a1.185,1.185,0,0,0-.532-.119c-1.646,0-3.292-.017-4.934-.02H50.3a5.168,5.168,0,0,1-4.972-4.223,4.741,4.741,0,0,1-.075-.85q0-8.636,0-17.272a5.107,5.107,0,0,1,4.907-5.185H95.207a6,6,0,0,1,1.666.142A5.039,5.039,0,0,1,100.656,64a4.7,4.7,0,0,1,.095,1.046c0,5.788-.017,11.579,0,17.37a5.175,5.175,0,0,1-4.1,4.951,4.742,4.742,0,0,1-.979.085H79.876a4.6,4.6,0,0,0-.5.02c.051.173.081.308.132.433q.921,2.269,1.846,4.535c.034.091.064.183.095.271ZM64.373,75.989c-.044-.03-.071-.037-.078-.054-.1-.257-.193-.511-.284-.772a43.754,43.754,0,0,1-1.656-6.282,4.843,4.843,0,0,0-.393-1.317,1.642,1.642,0,0,0-2.662-.42,3.553,3.553,0,0,0-.582.752c-.85,1.582-1.693,3.177-2.52,4.765-.779,1.473-1.551,2.95-2.33,4.423a2.169,2.169,0,0,1-.166.224c-.041-.159-.071-.264-.095-.369-.146-.63-.308-1.256-.433-1.89-.389-2-.779-4-1.141-6-.224-1.229-.4-2.465-.6-3.695a1.63,1.63,0,0,0-1.551-1.565,2.032,2.032,0,0,0-1.92.7,1.954,1.954,0,0,0-.42,1.51c.054.437.135.867.21,1.3.379,2.211.742,4.426,1.151,6.631s.891,4.423,1.5,6.6c.284,1.016.63,2,.975,3a2.818,2.818,0,0,0,.762,1.134,1.016,1.016,0,0,0,.965.274,2.178,2.178,0,0,0,1.04-.6,8.666,8.666,0,0,0,1.446-1.866c.427-.738.833-1.493,1.219-2.255.9-1.768,1.778-3.546,2.665-5.317.044-.085.095-.163.152-.257a.7.7,0,0,1,.068.108c.037.112.075.227.108.339a27.682,27.682,0,0,0,2.5,5.92,16.814,16.814,0,0,0,2.2,2.984,3.336,3.336,0,0,0,1.185.867,1.646,1.646,0,0,0,1,.095,1.5,1.5,0,0,0,1.016-.8A2.347,2.347,0,0,0,68,83.016c0-1.2,0-2.391.044-3.583a34.817,34.817,0,0,1,.339-3.563c.21-1.653.474-3.3.806-4.924a23.029,23.029,0,0,1,1.307-4.44c.142-.339.3-.654.444-.989a1.771,1.771,0,0,0,.142-.9,1.981,1.981,0,0,0-1.6-1.744,1.8,1.8,0,0,0-2.056.853,14.945,14.945,0,0,0-.786,1.626,31.452,31.452,0,0,0-1.775,6.888c-.159,1.016-.274,2.032-.41,3.048-.024.24-.061.461-.095.7Zm33.656-3.129a9.906,9.906,0,0,0-.6-3.725,5.92,5.92,0,0,0-2.164-2.868,5.757,5.757,0,0,0-3.84-.941A5.419,5.419,0,0,0,88,66.967a10.644,10.644,0,0,0-2.455,4,11.646,11.646,0,0,0-.677,5.039,9.56,9.56,0,0,0,.677,2.929,5.649,5.649,0,0,0,2.1,2.631,5.788,5.788,0,0,0,3.238.928,5.419,5.419,0,0,0,3.014-.874,6.939,6.939,0,0,0,1.883-1.863,12.1,12.1,0,0,0,2.242-6.9Zm-14.251-.224c-.03-.433-.054-.87-.091-1.307a7.7,7.7,0,0,0-.755-2.736,5.578,5.578,0,0,0-5.808-3.265A5.226,5.226,0,0,0,74,66.73a10.407,10.407,0,0,0-2.757,4.308,12.192,12.192,0,0,0-.677,4.453,9.821,9.821,0,0,0,.474,2.868,6.465,6.465,0,0,0,1.49,2.526,5.8,5.8,0,0,0,6.336,1.145,6.435,6.435,0,0,0,2.669-2.323A12.263,12.263,0,0,0,83.778,72.636Z" transform="translate(-45.258 -59.904)" fill="#a65893"/>
        <path id="Path_952" data-name="Path 952" d="M179.007,91.089a7.962,7.962,0,0,1-.928,3.725,4.528,4.528,0,0,1-1.24,1.429,2.438,2.438,0,0,1-.938.45,1.233,1.233,0,0,1-1.175-.339,2.841,2.841,0,0,1-.677-1.148,6.57,6.57,0,0,1,.23-5.016,7.328,7.328,0,0,1,1.033-1.693,2.936,2.936,0,0,1,1.09-.881,1.409,1.409,0,0,1,1.747.478,4.555,4.555,0,0,1,.647,1.4A5.239,5.239,0,0,1,179.007,91.089Z" transform="translate(-130.175 -78.146)" fill="#a65893"/>
        <path id="Path_953" data-name="Path 953" d="M136.9,91.108a7.962,7.962,0,0,1-.914,3.6,4.328,4.328,0,0,1-1.355,1.544,2.37,2.37,0,0,1-.86.393,1.273,1.273,0,0,1-1.267-.433A3.153,3.153,0,0,1,131.9,95.1a6.553,6.553,0,0,1,.179-4.775,6.634,6.634,0,0,1,1.446-2.252,2.476,2.476,0,0,1,.847-.552A1.4,1.4,0,0,1,136,88a4.741,4.741,0,0,1,.779,1.934C136.854,90.329,136.867,90.719,136.9,91.108Z" transform="translate(-102.313 -78.105)" fill="#a65893"/>
      </g>
      <path id="Path_954" data-name="Path 954" d="M75.9,166.41h3.434c.417,1.829.8,3.661,1.175,5.5.122-.606.24-1.216.369-1.822s.268-1.233.406-1.849.284-1.216.43-1.832h3.553q.677,5.06,1.355,10.139H83.913c-.119-1.145-.237-2.279-.339-3.41s-.234-2.266-.369-3.387h-.044l-1.653,6.8H79.646q-.864-3.387-1.737-6.824h-.044c-.234,2.266-.454,4.538-.677,6.8a22.259,22.259,0,0,1-2.56,0C74.58,176.356,75.84,166.657,75.9,166.41Z" transform="translate(-32.509 -70.437)"/>
      <path id="Path_955" data-name="Path 955" d="M117.125,171.883c.362-1.839.776-3.664,1.223-5.493h3.536c.454,3.387.908,6.743,1.355,10.16h-2.709q-.359-3.427-.721-6.838h-.041q-.823,3.407-1.653,6.827h-1.849q-.867-3.387-1.734-6.81h-.054L113.8,176.5a22.806,22.806,0,0,1-2.56.02c-.027-.2,1.084-9.117,1.26-10.1.149-.047,3.048-.064,3.461-.02C116.38,168.212,116.752,170.044,117.125,171.883Z" transform="translate(-56.722 -70.414)"/>
      <path id="Path_956" data-name="Path 956" d="M56.456,170.89a7.112,7.112,0,0,1-.525,2.946,3.806,3.806,0,0,1-1.842,2,4.562,4.562,0,0,1-2.222.427,5.844,5.844,0,0,1-1.212-.169,3.725,3.725,0,0,1-2.449-2.049,6.4,6.4,0,0,1-.593-2.222,10.353,10.353,0,0,1,0-1.917,5.571,5.571,0,0,1,.708-2.371,3.786,3.786,0,0,1,2.862-1.886,5.419,5.419,0,0,1,2.161.115,3.8,3.8,0,0,1,2.638,2.333,6.909,6.909,0,0,1,.474,2.482C56.459,170.674,56.456,170.782,56.456,170.89Zm-5.984.186c.02.3.037.7.075,1.1a3.021,3.021,0,0,0,.23,1.016,1.209,1.209,0,0,0,1.057.772,1.314,1.314,0,0,0,1.233-.566,1.829,1.829,0,0,0,.278-.647,8.223,8.223,0,0,0,.193-2.032,5.778,5.778,0,0,0-.193-1.558,2.249,2.249,0,0,0-.423-.836,1.243,1.243,0,0,0-1.954.115,2.191,2.191,0,0,0-.3.677A7.789,7.789,0,0,0,50.471,171.077Z" transform="translate(-14.614 -69.899)"/>
      <path id="Path_957" data-name="Path 957" d="M167.8,166.409h3.332a5.361,5.361,0,0,1,2.283.474,2.892,2.892,0,0,1,1.47,1.4,2.78,2.78,0,0,1-1.168,3.6l-.22.122,2.178,4.555h-2.892l-2.2-4.558h-.047c-.017.291,0,.589,0,.884v3.634c-.166.047-2.442.061-2.709.02C167.758,176.376,167.751,166.646,167.8,166.409Zm2.733,1.954a19.7,19.7,0,0,0,.017,2.418c.247-.031.494-.051.742-.088a1.649,1.649,0,0,0,.62-.237.857.857,0,0,0,.369-.488,1.168,1.168,0,0,0-.779-1.47,3.522,3.522,0,0,0-.969-.135Z" transform="translate(-94.107 -70.436)"/>
      <path id="Path_958" data-name="Path 958" d="M215.309,172.553v1.873c.234.02.467,0,.7,0h2.1v2.13c-.156.047-5.026.068-5.507.024h0V166.45h5.517a17.606,17.606,0,0,1,0,2.164h-2.807v1.856h2.4v2.1Z" transform="translate(-123.757 -70.464)"/>
      <path id="Path_959" data-name="Path 959" d="M154.6,174.412v2.127c-.156.044-5.273.058-5.54,0V166.457c1.832-.058,3.671,0,5.527-.027v2.154c-.464.027-.928,0-1.392.017H151.81v1.856h2.4v2.1h-2.4v1.856Z" transform="translate(-81.735 -70.45)"/>
      <path id="Path_960" data-name="Path 960" d="M32.362,173.619v2.415c-.125.03-.254.071-.386.1a5.568,5.568,0,0,1-3.813-.481,4.829,4.829,0,0,1-2.533-3.434,5.94,5.94,0,0,1,.091-3.072,4.839,4.839,0,0,1,3.752-3.42,6.4,6.4,0,0,1,2.672,0,2.014,2.014,0,0,1,.217.054v2.391H32.2c-.339-.054-.65-.125-.975-.159a2.316,2.316,0,0,0-2.506,1.426,3.515,3.515,0,0,0,.044,3.065,2.293,2.293,0,0,0,2.1,1.338,4.517,4.517,0,0,0,1.26-.149Z" transform="translate(0 -69.891)"/>
      <path id="Path_961" data-name="Path 961" d="M196.725,165.806v2.408l-.339-.071a4.646,4.646,0,0,0-1.355-.125,2.255,2.255,0,0,0-1.693,1.016,3.221,3.221,0,0,0-.552,2.032,3.387,3.387,0,0,0,.3,1.378,2.371,2.371,0,0,0,2.137,1.433,4.4,4.4,0,0,0,1.28-.149l.207-.047a17.488,17.488,0,0,1,0,2.428c-.19.041-.393.088-.6.119a5.618,5.618,0,0,1-3.407-.44,4.792,4.792,0,0,1-2.621-3.194,6.011,6.011,0,0,1,.02-3.424,4.833,4.833,0,0,1,3.668-3.387,6.489,6.489,0,0,1,2.841,0A.365.365,0,0,1,196.725,165.806Z" transform="translate(-108.707 -69.918)"/>
    </g>
  </g>
</svg>
