<svg id="delhivery" xmlns="http://www.w3.org/2000/svg" width="50.278" height="50.277" viewBox="0 0 50.278 50.277">
  <path id="Path_1060" data-name="Path 1060" d="M50.278,38.1V12.182A12.18,12.18,0,0,0,38.1,0H12.182A12.18,12.18,0,0,0,0,12.182V38.1A12.18,12.18,0,0,0,12.182,50.278H38.1A12.18,12.18,0,0,0,50.278,38.1Z" transform="translate(0 0)"/>
  <g id="Group_2081" data-name="Group 2081" transform="translate(14.367 9.775)">
    <g id="Group_2080" data-name="Group 2080" transform="translate(0 0)">
      <path id="Path_1061" data-name="Path 1061" d="M42.563,205.988h9.2c2.6,0,5.2-.05,7.8.05a3.145,3.145,0,0,1,1.55.6c2.449,1.65,3.049,3.949,2.949,6.9-.25,6.1-.1,12.247-.05,18.346a3.388,3.388,0,0,1-.85,2.1c-1.65,2.2-3.7,2.849-6.4,2.7-4.349-.25-8.648-.1-13-.1-.8,0-1.1-.2-1.1-1.05,0-9.6-.1-19.146-.1-28.743A2.11,2.11,0,0,1,42.563,205.988Zm7,7.048v15.9c0,.7.4.75.9.75,1.85,0,3.7-.05,5.549,0,.85.05,1.05-.25,1.05-1.1-.05-3.9,0-7.8,0-11.7v-3.849Z" transform="translate(-42.525 -205.975)" fill="#fff"/>
    </g>
    <path id="Path_3870" data-name="Path 3870" d="M.169,0h6.92V7.048H.169Z" transform="translate(-0.053 23.657)" fill="#cc4338"/>
  </g>
</svg>
