<svg xmlns="http://www.w3.org/2000/svg" width="50" height="50" viewBox="0 0 50 50">
  <g id="xpress_bees_api" transform="translate(-190 -617.001)">
    <g id="United_States_Postal_Service_5_" transform="translate(188.452 615.453)">
      <path id="Path_1079" data-name="Path 1079" d="M37.886,0H12.114A12.113,12.113,0,0,0,0,12.114V37.886A12.113,12.113,0,0,0,12.114,50H37.886A12.113,12.113,0,0,0,50,37.886V12.114A12.113,12.113,0,0,0,37.886,0Z" transform="translate(1.548 1.548)" fill="#ea8d00"/>
    </g>
    <g id="Group_2089" data-name="Group 2089" transform="translate(194.667 629.158)">
      <g id="Group_2085" data-name="Group 2085" transform="translate(-1.667 1.842)">
        <path id="Path_1080" data-name="Path 1080" d="M216.7,147.7h-3.216c-1.369,0-2.739-.061-4.1.024-.783.049-1.064-.281-1.284-.954-.526-1.589-1.113-3.167-1.736-4.915-.795.966-1.5,1.822-2.2,2.678-.721.893-1.43,1.81-2.176,2.69a1.112,1.112,0,0,1-.7.452c-2.433.037-4.866.024-7.495.024.465-.538.819-.954,1.174-1.357,2.739-3.057,5.453-6.113,8.216-9.145a1,1,0,0,0,.159-1.345c-1.43-2.873-2.837-5.771-4.243-8.656-.086-.183-.171-.379-.318-.685h2.568c1.577,0,3.167.024,4.744-.012a.9.9,0,0,1,1.015.746c.514,1.6,1.088,3.167,1.675,4.878.22-.232.367-.367.489-.526,1.174-1.528,2.335-3.069,3.521-4.585a1.151,1.151,0,0,1,.746-.465c2.274-.037,4.56-.012,6.835-.012a1.563,1.563,0,0,1,.293.1c-1.223,1.369-2.421,2.69-3.607,4.022-1.651,1.834-3.289,3.668-4.964,5.477a.918.918,0,0,0-.147,1.2c1.479,3.154,2.922,6.321,4.365,9.488C216.443,147.049,216.541,147.306,216.7,147.7Z" transform="translate(-177.38 -126.478)" fill="#121214"/>
        <path id="Path_1081" data-name="Path 1081" d="M59.5,147.679c2.922-3.179,5.673-6.174,8.424-9.158.795-.868,1.565-1.761,2.409-2.592a1.138,1.138,0,0,0,.232-1.5c-1.162-2.347-2.3-4.719-3.448-7.079-.11-.232-.22-.477-.391-.868,1.2,0,2.311-.012,3.411.012.134,0,.318.183.391.33q2.109,4.163,4.169,8.338a.864.864,0,0,1-.147.758q-4.933,5.667-9.891,11.31a1.205,1.205,0,0,1-.709.44C62.532,147.691,61.126,147.679,59.5,147.679Z" transform="translate(-59.5 -126.46)" fill="#121214"/>
        <path id="Path_1082" data-name="Path 1082" d="M109.631,126.356c1.186,0,2.225-.024,3.264.024a.848.848,0,0,1,.587.416c1.479,2.91,2.947,5.832,4.377,8.766a.952.952,0,0,1-.159.819c-2.873,3.313-5.82,6.578-8.632,9.94a3.071,3.071,0,0,1-2.934,1.272c-.893-.086-1.8-.012-2.934-.012,1.284-1.406,2.4-2.641,3.533-3.864,2.3-2.506,4.6-5,6.92-7.495.465-.5.306-.966.061-1.467-1.186-2.433-2.372-4.854-3.558-7.287C110,127.139,109.851,126.833,109.631,126.356Z" transform="translate(-97.857 -126.35)" fill="#121214"/>
        <path id="Path_1083" data-name="Path 1083" d="M148.2,147.557c1.883-2.054,3.595-3.925,5.306-5.8,1.614-1.748,3.228-3.509,4.854-5.245a.95.95,0,0,0,.134-1.223q-2.017-4.108-4.01-8.228c-.1-.183-.171-.379-.33-.709,1.2,0,2.311-.024,3.411.024.159.012.367.281.465.477,1.5,2.983,3.008,5.979,4.475,8.974a1.007,1.007,0,0,1-.122.893c-3.044,3.521-6.125,7.018-9.194,10.515a.874.874,0,0,1-.526.306C151.257,147.569,149.838,147.557,148.2,147.557Z" transform="translate(-137.355 -126.35)" fill="#121214"/>
      </g>
    </g>
  </g>
</svg>
